<svg width="208" height="33" viewBox="0 0 208 33" fill="none" xmlns="http://www.w3.org/2000/svg">
<g clip-path="url(#clip0_2536_5337)">
<path d="M45.2582 14.1975L53.7262 2.04395V20.5741H50.2348V13.0803L45.2322 20.3016L40.2556 13.0803V20.5741H36.7642V2.04395L45.2582 14.1975Z" fill="white"/>
<path d="M59.9013 17.9036L58.781 20.5196H58.1817H58.0514H55.7585H55.0029L62.8977 2.04395L70.8185 20.5196H70.0629H67.7961H67.6398H67.0405L65.9201 17.9036L65.868 17.7673H59.9534L59.9013 17.9036ZM64.461 14.5518L62.9238 10.764L61.3865 14.5518H64.461Z" fill="white"/>
<path d="M72.1211 2.37085H77.7751C79.4427 2.37085 81.1102 2.97035 82.3087 4.22386C83.5073 5.47737 84.0023 6.64913 84.0023 8.39314V8.9654C84.0023 10.3279 83.6376 11.3089 82.908 12.3989C82.1785 13.4889 81.5531 13.7887 80.4067 14.2519L84.3411 20.574H80.094L75.6386 13.4617V20.574H72.1472L72.1211 2.37085ZM78.0878 11.1182C78.8173 11.1182 79.1821 10.9274 79.6772 10.3824C80.1722 9.86466 80.3806 9.2379 80.3806 8.4749C80.3806 7.73914 80.1983 7.22139 79.6772 6.70363C79.1821 6.15863 78.2702 5.96788 77.5406 5.96788H75.5865V11.0909L78.0878 11.1182Z" fill="white"/>
<path d="M89.3962 2.37085V9.26515L93.2263 2.37085H97.2389L92.106 11.6087L98.0726 20.5467H93.8256L89.3962 13.8977V20.574H85.9048V2.37085H89.3962Z" fill="white"/>
<path d="M109.823 2.37085V5.99513H102.866V9.64666H108.077V13.2709H102.866V16.8952H109.823V20.5467H102.866H99.375V2.37085H109.823Z" fill="white"/>
<path d="M119.073 2.37085H123.424V5.99513H119.073V20.5467H115.582V6.02238H111.23V2.37085H115.582H119.073Z" fill="white"/>
<path d="M131.397 2.37085H134.889V20.574H131.397V2.37085Z" fill="white"/>
<path d="M147.031 12.4262V2.37085H150.522V20.901L140.1 10.4914V20.5467H136.608V2.0166L147.031 12.4262Z" fill="white"/>
<path d="M157.4 16.9771C158.364 16.9771 159.172 16.1323 159.172 15.1241C159.172 14.3338 158.886 13.8433 158.286 13.6253C157.036 13.1348 157.348 13.2438 156.124 12.8078C154.847 12.3445 153.648 11.418 152.867 10.3008C152.398 9.61952 152.163 8.80201 152.163 7.79375C152.163 6.29499 152.684 4.98698 153.727 3.89698C154.769 2.80697 155.993 2.26196 157.452 2.26196C158.886 2.26196 160.136 2.80697 161.178 3.89698C162.221 4.98698 162.742 6.26774 162.742 7.79375H159.198C159.198 6.81275 158.39 5.96799 157.452 5.96799C156.488 5.96799 155.681 6.81275 155.681 7.82101C155.681 8.47501 155.941 8.96551 156.436 9.31977C157.479 10.0283 157.348 9.89202 158.599 10.2735C159.928 10.6823 161.152 11.5543 161.986 12.6715C162.481 13.3255 162.716 14.1703 162.716 15.2058C162.716 16.7318 162.195 18.0398 161.152 19.1026C160.11 20.1653 158.886 20.7376 157.426 20.7376C155.967 20.7376 154.717 20.1926 153.701 19.1026C152.684 18.0126 152.137 16.7318 152.137 15.2058H155.655C155.655 16.1596 156.462 16.9771 157.4 16.9771Z" fill="white"/>
<path d="M164.305 2.37085H167.797V20.574H164.305V2.37085Z" fill="white"/>
<path d="M173.815 2.42529C176.212 2.42529 178.453 3.32455 180.173 5.09581C183.273 8.33859 183.273 14.6879 180.173 17.9034C178.479 19.6747 176.212 20.5739 173.815 20.5739H169.516V2.42529H173.815ZM173.815 16.9224C175.248 16.9224 176.551 16.5137 177.567 15.4509C178.583 14.3881 178.974 12.9984 178.974 11.4996C178.974 10.0009 178.583 8.61109 177.541 7.54833C176.525 6.48557 175.196 6.04957 173.763 6.04957H172.955V16.9497H173.815V16.9224Z" fill="white"/>
<path d="M194.217 2.37085V5.99513H187.26V9.64666H192.471V13.2709H187.26V16.8952H194.217V20.5467H187.26H183.769V2.37085H194.217Z" fill="white"/>
<path d="M195.806 2.37085H201.46C203.128 2.37085 204.795 2.97035 205.994 4.22386C207.192 5.47737 207.687 6.64913 207.687 8.39314V8.9654C207.687 10.3279 207.323 11.3089 206.593 12.3989C205.864 13.4889 205.238 13.7887 204.092 14.2519L208.026 20.574H203.753L199.324 13.4617V20.574H195.832L195.806 2.37085ZM201.799 11.1182C202.528 11.1182 202.893 10.9274 203.388 10.3824C203.883 9.8374 204.092 9.2379 204.092 8.4749C204.092 7.73914 203.909 7.22139 203.388 6.70363C202.893 6.15863 201.981 5.96788 201.252 5.96788H199.298V11.0909L201.799 11.1182Z" fill="white"/>
<path d="M26.7849 0V9.29232L13.3925 23.2989L6.69623 16.2956L0 23.2989V0L13.3925 14.0066L26.7849 0Z" fill="url(#paint0_linear_2536_5337)"/>
<path d="M17.874 23.2989L26.7589 14.0066V23.2989H17.874Z" fill="url(#paint1_linear_2536_5337)"/>
<g opacity="0.3">
<path d="M180.121 32.8638L181.84 23.3535H183.482L184.837 27.7681C185.175 28.9126 185.384 29.8118 185.54 30.7111H185.566C185.644 29.7573 185.749 28.6946 186.009 27.332L186.739 23.3808H188.12L186.4 32.8911H184.915L183.534 28.4766C183.169 27.2503 182.987 26.4873 182.778 25.4245H182.752C182.648 26.351 182.466 27.5773 182.205 28.9943L181.502 32.8638H180.121Z" fill="white"/>
<path d="M192.914 32.5096C192.314 32.8366 191.533 33.0001 190.777 33.0001C189.058 33.0001 188.276 31.8556 188.276 30.2479C188.276 28.2041 189.605 25.8606 191.793 25.8606C193.018 25.8606 193.748 26.6509 193.748 27.7409C193.748 29.5121 192.08 30.1116 189.761 30.0571C189.735 30.2751 189.787 30.7656 189.917 31.0654C190.152 31.5286 190.569 31.7466 191.142 31.7466C191.819 31.7466 192.341 31.5559 192.783 31.3379L192.914 32.5096ZM191.585 27.0869C190.751 27.0869 190.126 27.9316 189.917 28.8854C191.35 28.9126 192.341 28.6401 192.341 27.7954C192.341 27.3321 192.054 27.0869 191.585 27.0869Z" fill="white"/>
<path d="M196.145 25.9968L196.197 29.3486C196.197 30.1661 196.197 30.6839 196.145 31.3651H196.171C196.353 30.7656 196.587 30.1661 196.9 29.4576L198.437 25.9968H199.662L199.87 29.3759C199.896 30.1661 199.923 30.7384 199.896 31.3379H199.923C200.105 30.6839 200.287 30.1116 200.574 29.3486L201.929 25.9968H203.44L200.365 32.8639H198.985L198.75 29.8664C198.698 29.2124 198.698 28.5856 198.724 27.8498H198.698C198.411 28.6673 198.229 29.2124 197.968 29.8119L196.561 32.8639H195.154L194.633 25.9968H196.145Z" fill="white"/>
<path d="M203.362 31.4195C203.675 31.6102 204.222 31.8282 204.769 31.8282C205.394 31.8282 205.759 31.4467 205.759 30.9562C205.759 30.5202 205.525 30.2205 204.951 29.8662C204.274 29.4302 203.779 28.858 203.779 28.1222C203.779 26.8415 204.821 25.8877 206.306 25.8877C206.932 25.8877 207.453 26.0239 207.739 26.2147L207.375 27.3592C207.14 27.223 206.749 27.0867 206.28 27.0867C205.681 27.0867 205.29 27.441 205.29 27.9042C205.29 28.313 205.551 28.5582 206.046 28.858C206.749 29.294 207.296 29.8935 207.296 30.6837C207.296 32.1825 206.15 33.0272 204.639 33.0272C203.935 33.0272 203.258 32.8092 202.971 32.564L203.362 31.4195Z" fill="white"/>
</g>
</g>
<defs>
<linearGradient id="paint0_linear_2536_5337" x1="3.18297e-07" y1="22.2973" x2="27.9978" y2="1.65677" gradientUnits="userSpaceOnUse">
<stop stop-color="#DBF227"/>
<stop offset="0.964" stop-color="#3FF2EF"/>
</linearGradient>
<linearGradient id="paint1_linear_2536_5337" x1="10.1464" y1="29.1923" x2="29.1745" y2="18.1407" gradientUnits="userSpaceOnUse">
<stop stop-color="#DBF227"/>
<stop offset="0.964" stop-color="#3FF2EF"/>
</linearGradient>
<clipPath id="clip0_2536_5337">
<rect width="208" height="33" fill="white"/>
</clipPath>
</defs>
</svg>
