<svg width="220" height="35" viewBox="0 0 220 35" fill="none" xmlns="http://www.w3.org/2000/svg">
<g clip-path="url(#clip0_2536_5419)">
<path d="M47.8693 15.0578L56.8259 2.16763V21.8208H53.133V13.8728L47.8418 21.5318L42.5781 13.8728V21.8208H38.8853V2.16763L47.8693 15.0578Z" fill="white"/>
<path d="M63.3573 18.9884L62.1723 21.763H61.5384H61.4006H58.9755H58.1763L66.5265 2.16763L74.9043 21.763H74.1051H71.7075H71.5422H70.9083L69.7233 18.9884L69.6682 18.8439H63.4124L63.3573 18.9884ZM68.18 15.4335L66.5541 11.4162L64.9281 15.4335H68.18Z" fill="white"/>
<path d="M76.2822 2.51445H82.2624C84.0262 2.51445 85.7899 3.15029 87.0576 4.47977C88.3253 5.80925 88.8489 7.05202 88.8489 8.90173V9.50867C88.8489 10.9538 88.4631 11.9942 87.6915 13.1503C86.9198 14.3064 86.2584 14.6243 85.0459 15.1156L89.2072 21.8208H84.7151L80.0026 14.2775V21.8208H76.3098L76.2822 2.51445ZM82.5931 11.7919C83.3648 11.7919 83.7506 11.5896 84.2742 11.0116C84.7978 10.4624 85.0183 9.79769 85.0183 8.98844C85.0183 8.20809 84.8254 7.65896 84.2742 7.10983C83.7506 6.53179 82.7861 6.32948 82.0144 6.32948H79.9475V11.763L82.5931 11.7919Z" fill="white"/>
<path d="M94.5537 2.51445V9.82659L98.6048 2.51445H102.849L97.4198 12.3121L103.731 21.7919H99.2386L94.5537 14.7399V21.8208H90.8608V2.51445H94.5537Z" fill="white"/>
<path d="M116.159 2.51445V6.35838H108.801V10.2312H114.313V14.0751H108.801V17.9191H116.159V21.7919H108.801H105.108V2.51445H116.159Z" fill="white"/>
<path d="M125.943 2.51445H130.545V6.35838H125.943V21.7919H122.25V6.38728H117.647V2.51445H122.25H125.943Z" fill="white"/>
<path d="M138.978 2.51445H142.671V21.8208H138.978V2.51445Z" fill="white"/>
<path d="M155.513 13.1792V2.51446H159.206V22.1676L148.183 11.1272V21.7919H144.49V2.13873L155.513 13.1792Z" fill="white"/>
<path d="M166.481 18.0058C167.501 18.0058 168.355 17.1098 168.355 16.0405C168.355 15.2023 168.052 14.6821 167.418 14.4509C166.096 13.9306 166.426 14.0462 165.131 13.5838C163.781 13.0925 162.513 12.1098 161.686 10.9249C161.19 10.2023 160.942 9.33527 160.942 8.2659C160.942 6.67631 161.493 5.28902 162.596 4.13295C163.698 2.97688 164.993 2.39885 166.536 2.39885C168.052 2.39885 169.375 2.97688 170.477 4.13295C171.58 5.28902 172.131 6.6474 172.131 8.2659H168.383C168.383 7.22544 167.529 6.32949 166.536 6.32949C165.517 6.32949 164.663 7.22544 164.663 8.2948C164.663 8.98845 164.938 9.50868 165.462 9.8844C166.564 10.6358 166.426 10.4913 167.749 10.896C169.155 11.3295 170.45 12.2543 171.332 13.4393C171.855 14.133 172.103 15.0289 172.103 16.1272C172.103 17.7457 171.552 19.133 170.45 20.2601C169.347 21.3873 168.052 21.9942 166.509 21.9942C164.966 21.9942 163.643 21.4162 162.568 20.2601C161.493 19.1041 160.915 17.7457 160.915 16.1272H164.635C164.635 17.1387 165.489 18.0058 166.481 18.0058Z" fill="white"/>
<path d="M173.784 2.51445H177.477V21.8208H173.784V2.51445Z" fill="white"/>
<path d="M183.843 2.57227C186.378 2.57227 188.748 3.52602 190.567 5.40464C193.847 8.84394 193.847 15.578 190.567 18.9885C188.776 20.8671 186.378 21.8208 183.843 21.8208H179.296V2.57227H183.843ZM183.843 17.948C185.359 17.948 186.737 17.5145 187.812 16.3873C188.886 15.2601 189.3 13.7861 189.3 12.1965C189.3 10.6069 188.886 9.13296 187.784 8.00579C186.709 6.87862 185.304 6.4162 183.788 6.4162H182.934V17.9769H183.843V17.948Z" fill="white"/>
<path d="M205.422 2.51445V6.35838H198.063V10.2312H203.575V14.0751H198.063V17.9191H205.422V21.7919H198.063H194.371V2.51445H205.422Z" fill="white"/>
<path d="M207.103 2.51445H213.083C214.846 2.51445 216.61 3.15029 217.878 4.47977C219.146 5.80925 219.669 7.05202 219.669 8.90173V9.50867C219.669 10.9538 219.283 11.9942 218.512 13.1503C217.74 14.3064 217.079 14.6243 215.866 15.1156L220.028 21.8208H215.508L210.823 14.2775V21.8208H207.13L207.103 2.51445ZM213.441 11.7919C214.213 11.7919 214.598 11.5896 215.122 11.0116C215.646 10.4335 215.866 9.79769 215.866 8.98844C215.866 8.20809 215.673 7.65896 215.122 7.10983C214.598 6.53179 213.634 6.32948 212.862 6.32948H210.795V11.763L213.441 11.7919Z" fill="white"/>
<path d="M28.3302 0V9.85549L14.1651 24.711L7.08255 17.2832L0 24.711V0L14.1651 14.8555L28.3302 0Z" fill="url(#paint0_linear_2536_5419)"/>
<path d="M18.9053 24.711L28.3027 14.8555V24.711H18.9053Z" fill="url(#paint1_linear_2536_5419)"/>
<path d="M190.512 34.8555L192.331 24.7688H194.067L195.5 29.4509C195.859 30.6647 196.079 31.6185 196.244 32.5723H196.272C196.355 31.5607 196.465 30.4335 196.74 28.9884L197.512 24.7977H198.973L197.154 34.8844H195.583L194.122 30.2023C193.737 28.9017 193.544 28.0925 193.323 26.9653H193.296C193.185 27.948 192.992 29.2486 192.717 30.7514L191.973 34.8555H190.512Z" fill="white"/>
<path d="M204.044 34.4798C203.41 34.8266 202.583 35 201.784 35C199.965 35 199.138 33.7861 199.138 32.0809C199.138 29.9133 200.544 27.4277 202.859 27.4277C204.154 27.4277 204.925 28.2659 204.925 29.422C204.925 31.3006 203.162 31.9364 200.709 31.8786C200.681 32.1098 200.737 32.6301 200.874 32.948C201.122 33.4393 201.563 33.6705 202.17 33.6705C202.886 33.6705 203.437 33.4682 203.906 33.237L204.044 34.4798ZM202.638 28.7283C201.756 28.7283 201.095 29.6243 200.874 30.6358C202.39 30.6647 203.437 30.3757 203.437 29.4798C203.437 28.9884 203.134 28.7283 202.638 28.7283Z" fill="white"/>
<path d="M207.461 27.5723L207.516 31.1272C207.516 31.9942 207.516 32.5433 207.461 33.2659H207.488C207.681 32.6301 207.929 31.9942 208.26 31.2428L209.886 27.5723H211.181L211.402 31.1561C211.429 31.9942 211.457 32.6012 211.429 33.237H211.457C211.65 32.5433 211.843 31.9364 212.146 31.1272L213.579 27.5723H215.177L211.925 34.8555H210.465L210.217 31.6763C210.161 30.9827 210.161 30.3179 210.189 29.5376H210.161C209.858 30.4046 209.665 30.9827 209.39 31.6185L207.902 34.8555H206.413L205.862 27.5723H207.461Z" fill="white"/>
<path d="M215.095 33.3237C215.425 33.526 216.004 33.7572 216.583 33.7572C217.244 33.7572 217.63 33.3526 217.63 32.8324C217.63 32.3699 217.382 32.052 216.776 31.6763C216.059 31.2139 215.535 30.6069 215.535 29.8266C215.535 28.4682 216.638 27.4566 218.209 27.4566C218.87 27.4566 219.421 27.6012 219.724 27.8035L219.339 29.0173C219.091 28.8728 218.677 28.7283 218.181 28.7283C217.547 28.7283 217.134 29.104 217.134 29.5954C217.134 30.0289 217.409 30.289 217.933 30.6069C218.677 31.0694 219.256 31.7052 219.256 32.5434C219.256 34.1329 218.043 35.0289 216.445 35.0289C215.701 35.0289 214.984 34.7977 214.681 34.5376L215.095 33.3237Z" fill="white"/>
</g>
<defs>
<linearGradient id="paint0_linear_2536_5419" x1="3.3666e-07" y1="23.6486" x2="29.6704" y2="1.83515" gradientUnits="userSpaceOnUse">
<stop stop-color="#DBF227"/>
<stop offset="0.964" stop-color="#3FF2EF"/>
</linearGradient>
<linearGradient id="paint1_linear_2536_5419" x1="10.7318" y1="30.9616" x2="30.8856" y2="19.2883" gradientUnits="userSpaceOnUse">
<stop stop-color="#DBF227"/>
<stop offset="0.964" stop-color="#3FF2EF"/>
</linearGradient>
<clipPath id="clip0_2536_5419">
<rect width="220" height="35" fill="white"/>
</clipPath>
</defs>
</svg>
