<svg width="30" height="30" viewBox="0 0 30 30" fill="none" xmlns="http://www.w3.org/2000/svg">
<rect opacity="0.1" x="0.357143" y="0.357143" width="29.2857" height="29.2857" rx="1.07143" stroke="white" stroke-width="0.714286"/>
<path d="M13.5704 21.4287C15.9373 21.4287 17.8561 19.5099 17.8561 17.143V12.2839C18.4865 12.6486 19.2183 12.8573 19.999 12.8573H20.7132V10.7144H19.999C18.8155 10.7144 17.8561 9.75503 17.8561 8.57157H15.7132V17.143C15.7132 18.3265 14.7538 19.2859 13.5704 19.2859C12.3869 19.2859 11.4275 18.3265 11.4275 17.143C11.4275 15.9595 12.3869 15.0001 13.5704 15.0001V12.8573C11.2034 12.8573 9.28467 14.7761 9.28467 17.143C9.28467 19.5099 11.2034 21.4287 13.5704 21.4287Z" stroke="white" stroke-linecap="round" stroke-linejoin="round"/>
</svg>
