<svg width="30" height="30" viewBox="0 0 30 30" fill="none" xmlns="http://www.w3.org/2000/svg">
<rect opacity="0.1" x="0.357143" y="0.357143" width="29.2857" height="29.2857" rx="1.07143" stroke="white" stroke-width="0.714286"/>
<path d="M17.3465 9.28585C15.8437 9.28585 14.6255 10.565 14.6255 12.143C14.6255 12.3814 14.6533 12.6131 14.7058 12.8345C13.0708 12.8345 10.4994 12.4605 8.5708 9.92077C8.5708 16.27 11.1422 18.0689 12.4279 18.1747C11.4637 19.1271 9.96116 19.8321 8.5708 19.9647C9.16897 20.5077 11.0425 20.6908 11.9046 20.7144C16.3623 20.7144 19.9855 16.9624 20.0661 12.3018C20.921 11.7458 21.3271 10.2385 21.4279 9.92077C21.0114 10.3581 20.1422 10.5557 19.4496 10.33C18.9506 9.69247 18.1937 9.28585 17.3465 9.28585Z" stroke="white" stroke-linejoin="round"/>
</svg>
