<svg width="20" height="21" viewBox="0 0 20 21" fill="none" xmlns="http://www.w3.org/2000/svg">
<path d="M1 20.4457H19C19.2652 20.4457 19.5196 20.3391 19.7071 20.1495C19.8946 19.9598 20 19.7026 20 19.4343V4.26355C20 3.99532 19.8946 3.73807 19.7071 3.5484C19.5196 3.35873 19.2652 3.25217 19 3.25217H15V1.2294C15 0.961166 14.8946 0.703916 14.7071 0.514245C14.5196 0.324574 14.2652 0.218018 14 0.218018C13.7348 0.218018 13.4804 0.324574 13.2929 0.514245C13.1054 0.703916 13 0.961166 13 1.2294V3.25217H7V1.2294C7 0.961166 6.89464 0.703916 6.70711 0.514245C6.51957 0.324574 6.26522 0.218018 6 0.218018C5.73478 0.218018 5.48043 0.324574 5.29289 0.514245C5.10536 0.703916 5 0.961166 5 1.2294V3.25217H1C0.734784 3.25217 0.48043 3.35873 0.292893 3.5484C0.105357 3.73807 0 3.99532 0 4.26355V19.4343C0 19.7026 0.105357 19.9598 0.292893 20.1495C0.48043 20.3391 0.734784 20.4457 1 20.4457ZM2 5.27494H18V8.30909H2V5.27494ZM2 10.3319H18V18.4229H2V10.3319Z" fill="#DBF227"/>
</svg>
